<?xml version="1.0" encoding="UTF-8" standalone="no"?>
<svg
   xmlns:dc="http://purl.org/dc/elements/1.1/"
   xmlns:cc="http://creativecommons.org/ns#"
   xmlns:rdf="http://www.w3.org/1999/02/22-rdf-syntax-ns#"
   xmlns:svg="http://www.w3.org/2000/svg"
   xmlns="http://www.w3.org/2000/svg"
   xmlns:sodipodi="http://sodipodi.sourceforge.net/DTD/sodipodi-0.dtd"
   xmlns:inkscape="http://www.inkscape.org/namespaces/inkscape"
   viewBox="0 0 150 150"
   version="1.1"
   id="svg6"
   sodipodi:docname="icon.svg"
   width="150"
   height="150"
   inkscape:version="0.92.3 (2405546, 2018-03-11)"
   inkscape:export-filename="/home/tmendonca/projects/dynad/dynad-docs.github.io/website/static/img/favicon.png"
   inkscape:export-xdpi="257"
   inkscape:export-ydpi="257">
  <metadata
     id="metadata12">
    <rdf:RDF>
      <cc:Work
         rdf:about="">
        <dc:format>image/svg+xml</dc:format>
        <dc:type
           rdf:resource="http://purl.org/dc/dcmitype/StillImage" />
        <dc:title />
      </cc:Work>
    </rdf:RDF>
  </metadata>
  <defs
     id="defs10" />
  <sodipodi:namedview
     pagecolor="#ffffff"
     bordercolor="#666666"
     borderopacity="1"
     objecttolerance="10"
     gridtolerance="10"
     guidetolerance="10"
     inkscape:pageopacity="0"
     inkscape:pageshadow="2"
     inkscape:window-width="1323"
     inkscape:window-height="713"
     id="namedview8"
     showgrid="false"
     inkscape:zoom="0.67588933"
     inkscape:cx="52.523395"
     inkscape:cy="213.86257"
     inkscape:window-x="43"
     inkscape:window-y="27"
     inkscape:window-maximized="1"
     inkscape:current-layer="svg6" />
  <g
     id="g824"
     transform="matrix(1.0893246,0,0,1.0893246,-36.982569,-33.769061)"
     style="stroke-width:0.91799998">
    <path
       id="path2"
       d="M 119,49.4 C 103.3,46.5 88.8,49 81.2,55.2 c 7.5,-4.1 19.1,-5.5 31.7,-3.2 19.9,3.7 34.5,15.5 32.4,26.3 -1.7,9.4 -15.4,15 -32,13.9 20.6,3.2 38.6,-3.1 40.7,-14.4 2.2,-11.6 -13.5,-24.4 -35,-28.4 z M 65.3,68.7 c 2.3,-21.3 34,-35.1 70.8,-30.9 -2.4,-0.4 -4.7,-0.8 -7.2,-1.1 -36.8,-4.2 -68.5,9.7 -70.8,30.9 -2.3,21.3 25.6,41.9 62.4,46.1 -33.2,-5.8 -57.4,-25.1 -55.2,-45 z m 49.3,55.9 C 82.4,124.6 53.8,100.4 53.8,73.2 53.8,55.3 65,39.7 81.8,31 60.9,39.4 46.4,57.4 46.4,78.3 c 0,28.9 30.5,54.6 64.6,54.6 28.7,0 52.3,-13.8 52.8,-42 -2.6,22.6 -18.7,33.7 -49.2,33.7 z m -8.4,15.7 c -35.9,0 -65,-24.9 -65,-55.6 a 47.4,47.4 0 0 1 0.6,-7.5 c -1.7,5 -2.7,10.3 -2.7,15.8 0,30.7 29.1,55.6 65,55.6 33,0 60.2,-21 64.4,-48.1 -7.9,23 -32.8,39.8 -62.3,39.8 z m -3.1,13.6 c -35.9,0 -65,-25.6 -65,-57.2 a 44.03,44.03 0 0 1 0.6,-7.3 c -1,4.1 -1.6,8.3 -1.6,12.6 0,31.6 29.1,57.2 65,57.2 33.1,0 60.4,-21.7 64.5,-49.8 -6.6,25.5 -32.5,44.5 -63.5,44.5 z"
       inkscape:connector-curvature="0"
       style="stroke-width:0.91799998" />
    <path
       sodipodi:nodetypes="cscsccc"
       inkscape:connector-curvature="0"
       id="path4"
       d="m 150.7,136.1 c -10.9,16.4 -29.5,27.3 -50.7,27.3 -28.6,0 -46.2,-18.9 -50.3,-24.1 -1,3.1 20.9,29.4 51.4,29.4 23.4,0 43.7,-13.2 53.8,-32.5 l 1.8,-3.1 z"
       style="stroke-width:0.91799998" />
  </g>
</svg>
