<svg xmlns="http://www.w3.org/2000/svg" viewBox="0 0 150 150" width="150" height="150"><g stroke-width=".918"><path d="M92.647 20.044c-17.102-3.16-32.898-.436-41.176 6.318 8.17-4.467 20.806-5.992 34.531-3.486 21.678 4.03 37.582 16.884 35.294 28.65-1.852 10.239-16.775 16.339-34.858 15.14 22.44 3.487 42.048-3.376 44.335-15.686 2.397-12.636-14.705-26.58-38.126-30.936zM34.15 41.068c2.506-23.203 37.037-38.236 77.125-33.66-2.615-.436-5.12-.872-7.844-1.199-40.087-4.575-74.618 10.567-77.124 33.66-2.505 23.203 27.887 45.643 67.974 50.218-36.166-6.318-62.527-27.342-60.13-49.02zm53.704 60.893c-35.076 0-66.23-26.362-66.23-55.992 0-19.498 12.2-36.492 30.5-45.969-22.767 9.15-38.562 28.758-38.562 51.525 0 31.482 33.224 59.477 70.37 59.477 31.264 0 56.972-15.033 57.517-45.751-2.832 24.618-20.37 36.71-53.595 36.71zm-9.15 17.102c-39.107 0-70.806-27.124-70.806-60.566a51.634 51.634 0 01.653-8.17C6.7 55.773 5.61 61.547 5.61 67.538c0 33.442 31.7 60.567 70.806 60.567 35.948 0 65.577-22.876 70.153-52.397-8.606 25.055-35.73 43.355-67.865 43.355zm-3.377 14.815c-39.107 0-70.806-27.887-70.806-62.31a47.963 47.963 0 01.653-7.951c-1.089 4.466-1.743 9.041-1.743 13.725 0 34.423 31.7 62.31 70.806 62.31 36.057 0 65.796-23.639 70.262-54.249-7.19 27.778-35.403 48.475-69.172 48.475z"/><path d="M127.179 114.488c-11.874 17.865-32.135 29.739-55.23 29.739-31.154 0-50.326-20.589-54.792-26.253C16.067 121.35 39.924 150 73.148 150c25.49 0 47.604-14.38 58.606-35.403l1.96-3.377z"/></g></svg>